# xmcd
#
# Track frame offsets:
#   150
#   12300
#   36040
#   55856
#   77878
#   98705
#   116489
#   128550
#   149682
#   162231
#   180039
#   197118
#   217802
#   238631
#
# Disc length: 3341 seconds
#
# Revision: 0
# Processed by: cddbd v1.5.1PL2 Copyright (c) Steve Scherf et al.
# Submitted via: GXTranscoder 2.0.1939
#
DISCID=b20d0b0e
DTITLE=Garoux  - Garoux
DYEAR=1900
DGENRE=Blues
TTITLE0=Garoux 01
TTITLE1=Garoux 02
TTITLE2=Garoux 03
TTITLE3=Garoux 04
TTITLE4=Graoux 05
TTITLE5=Garoux 06
TTITLE6=Garoux 07
TTITLE7=Garoux 08
TTITLE8=Garoux 09
TTITLE9=Garoux 10
TTITLE10=Garoux 11
TTITLE11=Garoux 12
TTITLE12=Garoux 13
TTITLE13=Garoux 14
EXTD=\n
EXTT0=
EXTT1=
EXTT2=
EXTT3=
EXTT4=
EXTT5=
EXTT6=
EXTT7=
EXTT8=
EXTT9=
EXTT10=
EXTT11=
EXTT12=
EXTT13=
PLAYORDER=
